<svg viewBox="0 0 469.3076171875 469.6202392578125" xmlns="http://www.w3.org/2000/svg" width="469.308" height="469.62"><path fill="none" pointer-events="none" d="M0 0h469.308v469.62H0z"/><path class="st98" d="M284.069 319.095c-.5-.4-2.3-2.1-4.5-4.1l-.1-.1c-.1-.1-.2-.2-.4-.3-3-2.8-6.6-6.1-8.4-7.9-2.9-2.9-7.1-8.3-9.1-10.3-.4-.4-.8-.7-.9-.7-1-.2-7.4 7.4-10.5 10.7-2.3 2.5-1.9 3.5-1.5 3.9.1.1.3.2.3.2l1.7 1.9c1 .8 2.4 2.1 3.9 3.6 3.5 3.5 7.8 8.3 11.1 12.1l.1.1c.2.2.3.3.4.5.1.1.1.2.2.3l.3.3c.1.1.2.2.2.3l.3.3.3.3c.1.1.1.2.2.2.1.1.2.2.2.3.1.1.2.2.2.3.1.1.1.2.2.2.1.1.1.2.2.2.1.1.1.2.2.3l.2.2c.1.1.2.2.2.3l.1.1c.1.1.1.2.2.2l.1.1c.1.1.1.2.2.2v.1c.1.1.2.2.2.3.1.1.1.2.2.2.1.1.1.1.1.2 0 0 0 .1.1.1.1.1.1.1.1.2 13.5-7.7 13.8-14.7 13.7-14.8.1.1 0 .1 0 0zm-25.4-13.6c-.5.5-1.2.5-1.7 0s-.5-1.2 0-1.7 1.2-.5 1.7 0c.4.4.4 1.2 0 1.7zm12.1 27c-.7-.9-2.1-2.5-3.8-4.5l12-12c1.8 1.6 3.3 3 4 3.6-.3 1.6-2.1 6.9-12.2 12.9zm-7.9 27.2c-3.5-5-9.4-9.2-20.9-20.4 6.1-5.8 12.1-12 16.8-18.1-1.6-1.7-3.1-3.4-4.6-4.8-1.6-1.6-2.9-2.8-3.9-3.5l-.6-.7c-1 1.1-2 2.5-2.2 3.7-.3 1.8-4.4 8.3-12.1 16.6-7.7-8.4-11.8-14.8-12.1-16.6-.2-1.2-1.3-2.6-2.2-3.7l-.6.7c-1 .7-2.3 1.9-3.9 3.5-1.4 1.4-3 3.1-4.6 4.8 4.6 6.1 10.7 12.3 16.8 18.1-11.6 11.2-17.5 15.4-20.9 20.4-3.5 5-6.9 8.6-6.9 8.6s-.5 3.3 2.4 4.8c2.8 1.5 10.7.5 11.3-.1.6-.6-.2-5.5 1.4-9.4.9-2.1 9.5-9.2 19.4-18.2 9.9 9 18.6 16.1 19.4 18.2 1.6 3.9.9 8.8 1.4 9.4.6.6 8.4 1.6 11.3.1 2.8-1.5 2.4-4.8 2.4-4.8s-3.6-3.6-7.1-8.6zm-53 6.1c-.2.2-.5.2-.8 0-.2-.2-.2-.6 0-.8.2-.2.5-.2.8 0 .2.3.2.6 0 .8zm51.6 0c-.2.2-.6.2-.8 0-.2-.2-.2-.6 0-.8.2-.2.6-.2.8 0 .2.3.2.6 0 .8zm-60.7-32.9c.1-.1.1-.2.2-.2l.1-.1c.1-.1.1-.2.2-.2l.1-.1c.1-.1.1-.2.2-.3l.2-.2c.1-.1.1-.2.2-.3.1-.1.1-.2.2-.2.1-.1.1-.2.2-.2.1-.1.1-.2.2-.3.1-.1.2-.2.2-.3.1-.1.1-.2.2-.2l.3-.3.3-.3c.1-.1.2-.2.2-.3l.3-.3c.1-.1.1-.2.2-.3.1-.2.3-.3.4-.5l.1-.1c3.3-3.8 7.6-8.6 11.1-12.1 1.5-1.5 2.9-2.8 3.9-3.6l1.7-1.9s.1 0 .3-.2c.4-.4.8-1.4-1.5-3.9-3.1-3.3-9.6-10.9-10.5-10.7-.2 0-.5.3-.9.7-2 2-6.2 7.4-9.1 10.3-1.8 1.8-5.4 5.2-8.4 7.9-.1.1-.2.2-.4.3l-.1.1c-2.2 2-4 3.7-4.5 4.1l-.1.1s.3 6.9 13.6 14.7c0 0 .1-.1.1-.2 0 0 0-.1.1-.1 0-.1.1-.1.2-.2l.2-.2c.2-.1.2-.2.3-.4 0 .1 0 .1 0 0zm11.2-29.1c.5-.5 1.2-.5 1.7 0s.5 1.2 0 1.7-1.2.5-1.7 0-.5-1.3 0-1.7zm-12.2 28.7c-10-6.1-11.9-11.4-12.2-12.9.7-.6 2.2-2 4-3.6l12 12c-1.7 2-3.1 3.7-3.8 4.5zm39.8 65.2l-4.2-8.4-4.2 8.4-9.3 1.4 6.8 6.6-1.6 9.3 8.3-4.4 8.3 4.4-1.6-9.3 6.8-6.6zm58-45h-14.3v-7.7l3.9-3.4h5.4l2-1.7v-3l-2-1.7h-4.3l-2 1.7v2.1h-3v-3.4l3.9-3.4h6.6l3.9 3.4v5.6l-3.9 3.5h-5.3l-2.1 1.8v3.3h11.3v2.9zm20.8-10.3l-1.7 1.5v5.3l-3.9 3.4h-5.6l-3.9-3.4v-5.3l-1.7-1.5 1.7-1.5v-5.4l3.9-3.4h5.6l3.9 3.4v5.4l1.7 1.5zm-4.7 5.5v-10.9l-2.1-1.9h-3.1l-2.1 1.9v10.9l2.1 1.8h3.1l2.1-1.8zm17.5 4.8h-8.3v-3h2.6v-5.9l-1.7-1.5 1.7-1.5v-4.7h-2.6v-2.3l2.6-1.8h3v8.8l1.7 1.5-1.7 1.5v5.9h2.6v3zm19.9-3.4l-3.9 3.4h-5.8l-3.9-3.4v-5.3l-1.7-1.5 1.7-1.5v-5.5l3.9-3.4h5.9l3.9 3.4v3.7h-3v-2.4l-2.1-1.7h-3.4l-2.1 1.9.1 4h6.7l3.9 3v5.3zm-3-1.3v-2.6l-1.7-1.4h-5.9v3.9l2.1 1.8h3.4l2.1-1.7zm-210.9 4.7h-12.5v-8.7l-1.7-1.5 1.7-1.5v-8.9h12.5v3h-9.5v5.9h7.3v3h-7.3v5.7h9.5v3zm18.8-3.4l-3.9 3.4h-7l-3.9-3.4v-3.7h3v2.3l2.1 1.9h4.4l2.1-1.9v-2.3l-2.1-1.8h-5.3l-3.9-3.5v-4.7l3.9-3.4h6.5l3.9 3.4v3.4h-3v-2.1l-2-1.7h-4.3l-2 1.7v2.1l2 1.7h5.4l3.9 3.4v5.2zm18.5-14.2h-6v5.9l1.7 1.5-1.7 1.5v8.8h-3v-8.8l-1.7-1.5 1.7-1.5v-5.9h-6v-3h15v3zm5.7 17.6h-3v-3h3v3z" fill="#fff"/><path class="st98" d="M465.369 464.095h-460v-460h460v460zm-454-6h448v-448h-448v448z" fill="#fff"/><path class="st98" d="M394.369 151.895l-6.6-6-36.5-32.8s-14.2 7.8-15.3 7.9c-1.8.2-13.8-12-25.8-24.6-.7-.7-1.3-1.4-2-2.1-12.2-12.9-23.7-25.6-23.7-25.6s-34.7 26.3-42 28.4c-1.9.5-13.8-13.8-13.8-13.8s-69.7 50.7-78.3 55.7c-2.1 1.2-15.8-9.3-17.6-10.8-1 .5-24.8 8.7-78.4 42.8l74.5-27.3 18.9 18.6 29-30.3 11.6 14 37.4-47.9 17.1 24.3 39.2-40.8 19.5 23.8 4.9 6 25.7 31.3 16.9-19.6 27.3 32.4 4.2 5 2.4.9 36.4 9.7-25-19.2zm656.896 520.043c.6.2 1.3.9 1.6 1.5-3.5 4-6.8 7.7-9.8 7.7-3 0-3.3-2.9-2.2-6l1.5-4.3h-5.6c-4.2 5.6-8.8 10.2-14.6 10.2-8.8 0-13-8.7-8-17.2 4.6-7.9 15.2-8.5 18.4-1l-3.3 1.3c-2-4.8-8.3-4.7-11.9 1.5-3.3 5.6-1.6 11.8 4.9 11.8 10.7-.1 21.3-28.4 30.5-25.4l-8.3 24.2c-.6 1.7-.5 2.1.1 2.1.8 0 3.6-2.5 6.6-6l.1-.4zm-13.1-3.1h4.8l4.2-11.9c-3 3.1-5.9 7.6-9 11.9z" fill="#fff"/><path class="st98" d="M1071.065 671.938c.6.2 1.3.9 1.6 1.5-3.5 4-7.5 7.7-10.9 7.7-2.1 0-3.4-1.1-3.6-2.7-2 1.7-4.1 2.7-5.8 2.7-3.4 0-4.6-2.9-2.9-6l5.9-10.2c1.8-3.1 4.9-4.8 7.2-4.8 1.7 0 3.1 1 3.8 2.2l6.2-10.6h4.2l-14.2 24.6c-1 1.7-.4 2.3.5 2.3 1.9 0 4.8-2.8 7.8-6.3l.2-.4zm-18 4.3c-1 1.7-.4 2.3.5 2.3 1.8 0 4.4-2 6.9-6.1l3.2-5.5c2.1-3.8-2.4-4.8-4.7-.9l-5.9 10.2z" fill="#fff"/><path class="st98" d="M1079.865 660.538l-5.6 14c-1.6 4-1.3 4 1.2.1l9.4-14.1h3.8l-6.8 10.2c-2.2 4.5 1.7 4 4 1.5l.3-.3c.6.2 1.3.9 1.6 1.5-3.5 4.1-7.3 3.5-8.5 1.2l-2.2 3.3c-3.3 4.9-10.1 4.2-7.3-2.8l5.8-14.6h4.3z" fill="#fff"/><path class="st98" d="M1089.865 672.838l-.4.7c-1.9 3.4-.4 5 2.2 5 2.9 0 6.8-2.8 9.8-6.3l.3-.3c.6.2 1.3.9 1.6 1.5-3.5 4-8.2 7.7-12.9 7.7-5 0-7.2-4.1-4.6-8.6l4.4-7.5c1.8-3.1 4.5-4.8 7.9-4.8 3.4 0 5.6 2.9 3.3 6.8l-.6 1c-3.2 5.4-8.3 5.9-11 4.8zm1.2-2.1c1.6.6 4.3.6 6.3-2.8l.6-1c2.5-4.4-1.8-5-4.2-.9l-2.7 4.7z" fill="#fff"/><path class="st98" d="M1121.565 671.938c.6.2 1.3.9 1.6 1.5-3.5 4-7.5 7.7-10.9 7.7-3.4 0-4.6-2.9-2.9-6l5.4-9.5c1.8-3.1-1-4.2-7.5 3.9l-6.4 11.2h-4.2l11.7-20.2h4.2l-1.6 2.7c2.1-2.2 4-3.1 5.8-3.1 2.3 0 4.1 2.3 2.3 5.5l-6 10.6c-1 1.7-.4 2.3.5 2.3 1.9 0 4.8-2.8 7.8-6.3l.2-.3z" fill="#fff"/><path class="st98" d="M1125.465 658.538h3.8l4-6.9h4.2l-4 6.9h3.5l-1.2 2h-3.4l-9 15.7c-1 1.7-.4 2.3.5 2.3 1.9 0 4.8-2.8 7.8-6.3l.3-.3c.6.2 1.3.9 1.6 1.5-3.5 4-7.5 7.7-10.9 7.7-3.4 0-4.6-2.9-2.9-6l8.4-14.6h-3.8l1.1-2z" fill="#fff"/><path class="st98" d="M1151.765 671.938c.6.2 1.3.9 1.6 1.5-3.5 4-7.5 7.7-10.9 7.7-2.7 0-4-1.8-3.6-4-2 1.9-4.6 4-6.9 4-2.8 0-3.8-2.6-1.6-6.3l8.2-14.2h4.2l-8.2 14.3c-.5.9-1.6 2.5-.5 2.9.8.4 3.3-1.2 6.5-4.2l7.5-13h4.2l-9 15.7c-1 1.7-.4 2.3.5 2.3 1.9 0 4.8-2.8 7.8-6.3l.2-.4z" fill="#fff"/><path class="st98" d="M1161.065 667.438c.5-.8.3-1.7-.2-2.4l-.6-.7c-3.3 4.6-4.9 6.7-6.9 9-.6-.4-1.2-.9-1.6-1.5 2.7-3.2 5.2-6.8 7.1-9.4l-.4-.5c-1.5-1.9-1.3-4.3 1.1-6.5l2.2 2.4c-.8.8-.8 1.7-.2 2.4l2.3 2.8c1.4 1.7 2.1 3.1.6 5.7l-4.2 7.3c-1 1.7-.4 2.3.5 2.3 1.9 0 4.8-2.8 7.8-6.3l.3-.3c.6.2 1.3.9 1.6 1.5-3.5 4-7.5 7.7-10.9 7.7-3.4 0-4.6-2.9-2.9-6l4.4-7.5z" fill="#fff"/><path class="st98" d="M1172.565 672.838l-.4.7c-1.9 3.4-.4 5 2.2 5 2.9 0 6.8-2.8 9.8-6.3l.3-.3c.6.2 1.3.9 1.6 1.5-3.5 4-8.2 7.7-12.9 7.7-5 0-7.2-4.1-4.6-8.6l4.4-7.5c1.8-3.1 4.5-4.8 7.9-4.8 3.4 0 5.6 2.9 3.3 6.8l-.6 1c-3.3 5.4-8.3 5.9-11 4.8zm1.2-2.1c1.6.6 4.3.6 6.3-2.8l.6-1c2.5-4.4-1.8-5-4.2-.9l-2.7 4.7zm25.8 2.1l-.4.7c-1.9 3.4-.4 5 2.2 5 2.9 0 6.8-2.8 9.8-6.3l.3-.3c.6.2 1.3.9 1.6 1.5-3.5 4-8.2 7.7-12.9 7.7-5 0-7.2-4.1-4.6-8.6l4.4-7.5c1.8-3.1 4.5-4.8 7.9-4.8 3.4 0 5.6 2.9 3.3 6.8l-.6 1c-3.2 5.4-8.3 5.9-11 4.8zm1.2-2.1c1.6.6 4.3.6 6.3-2.8l.6-1c2.5-4.4-1.8-5-4.2-.9l-2.7 4.7z" fill="#fff"/><path class="st98" d="M1230.865 671.938c.6.2 1.3.9 1.6 1.5-3.5 4-6.9 7.7-10.2 7.7-3.4 0-4.1-2.4-3.6-6v-.2l-5.3 5.7h-2.8l8.7-9.6.9-6.7c-1.5 2-4.7 6.3-7.1 9-.6-.4-1.2-.9-1.6-1.5 2.2-2.6 5-6.2 6.8-8.6.9-1.4 2.3-3.1 3.9-3.1 1.9 0 2.3 1.5 1.8 4.8l-.4 2.5 6-6.9h3.1l-9.8 11.2-.7 4.5c-.6 3.8 3.1 2.5 8.3-4l.4-.3z" fill="#fff"/><path class="st98" d="M1220.665 689.538l16.7-29h4.2l-.8 1.5c4.3-3.8 10.6-1.6 6.7 5l-4.6 7.9c-.5.9-1 2.1-1.7 3.1 2.5-.9 5.3-3.1 7.7-5.9l.3-.3c.6.2 1.3.8 1.6 1.5-3.4 4-7.4 7.6-13.5 7.7h-.2c-3.8 0-4.6-3.4-4.6-3.4l2.4-1.1c.8 1.6 2.3 1.2 3 0l6.3-11c1.1-1.9-1.9-4.2-6.5 2.1l-12.5 21.8h-4.5z" fill="#fff"/><path class="st98" d="M1252.765 672.838l-.4.7c-1.9 3.4-.4 5 2.2 5 2.9 0 6.8-2.8 9.8-6.3l.3-.3c.6.2 1.3.9 1.6 1.5-3.5 4-8.2 7.7-12.9 7.7-5 0-7.2-4.1-4.6-8.6l4.4-7.5c1.8-3.1 4.5-4.8 7.9-4.8 3.4 0 5.6 2.9 3.3 6.8l-.6 1c-3.2 5.4-8.3 5.9-11 4.8zm1.2-2.1c1.6.6 4.3.6 6.3-2.8l.6-1c2.5-4.4-1.8-5-4.2-.9l-2.7 4.7z" fill="#fff"/><path class="st98" d="M1284.465 671.938c.6.2 1.3.9 1.6 1.5-3.5 4-7.5 7.7-10.9 7.7-2.1 0-3.4-1.1-3.6-2.7-2 1.7-4.1 2.7-5.8 2.7-3.4 0-4.6-2.9-2.9-6l5.9-10.2c1.8-3.1 4.9-4.8 7.2-4.8 1.7 0 3.1 1 3.8 2.2l6.2-10.6h4.2l-14.2 24.6c-1 1.7-.4 2.3.5 2.3 1.9 0 4.8-2.8 7.8-6.3l.2-.4zm-18.1 4.3c-1 1.7-.4 2.3.5 2.3 1.8 0 4.4-2 6.9-6.1l3.2-5.5c2.1-3.8-2.4-4.8-4.7-.9l-5.9 10.2z" fill="#fff"/><path class="st98" d="M1294.765 671.938c.6.2 1.3.9 1.6 1.5-3.5 4-7.5 7.7-10.9 7.7-3.4 0-4.6-2.9-2.9-6l8.4-14.6h4.2l-9 15.7c-1 1.7-.4 2.3.5 2.3 1.9 0 4.8-2.8 7.8-6.3l.3-.3zm1-18.4c1.4 0 2.5 1.1 2.5 2.5s-1.1 2.4-2.5 2.4-2.4-1-2.4-2.4 1-2.5 2.4-2.5z" fill="#fff"/><path class="st98" d="M1298.765 658.538h3.8l4-6.9h4.2l-4 6.9h3.5l-1.2 2h-3.4l-9 15.7c-1 1.7-.4 2.3.5 2.3 1.9 0 4.8-2.8 7.8-6.3l.3-.3c.6.2 1.3.9 1.6 1.5-3.5 4-7.5 7.7-10.9 7.7-3.4 0-4.6-2.9-2.9-6l8.4-14.6h-3.8l1.1-2z" fill="#fff"/><path class="st98" d="M1315.565 671.938c.6.2 1.3.9 1.6 1.5-3.5 4-7.5 7.7-10.9 7.7-3.4 0-4.6-2.9-2.9-6l8.4-14.6h4.2l-9 15.7c-1 1.7-.4 2.3.5 2.3 1.9 0 4.8-2.8 7.8-6.3l.3-.3zm.9-18.4c1.4 0 2.5 1.1 2.5 2.5s-1.1 2.4-2.5 2.4-2.4-1-2.4-2.4 1-2.5 2.4-2.5z" fill="#fff"/><path class="st98" d="M1325.865 677.438c-5.6 7.1-15.8 3.8-10.5-5.3l1.8-3.1 2.1-3.6c2.4-4.2 4.9-5.5 8.1-5.5 4 0 6.3 4.2 3.8 8.5l-4 6.8c2.1 0 4.4-1 6.3-3.1l.3-.3c.6.2 1.3.9 1.6 1.5-2.1 2.5-6.1 4.1-8.6 4.1h-.9zm-1.2-5.2h.2l3.1-5.2c2.5-4.4-1.5-6.3-4.4-1.3l-2 3.4-3.2 5.5c-2.5 4.4 2.3 5 4.3 1.6v-.1c-.2-.4-.4-.9-.4-1.4-.1-1.4 1-2.5 2.4-2.5z" fill="#fff"/><path class="st98" d="M1353.565 671.938c.6.2 1.3.9 1.6 1.5-3.5 4-7.5 7.7-10.9 7.7-3.4 0-4.6-2.9-2.9-6l5.4-9.5c1.8-3.1-1-4.2-7.5 3.9l-6.4 11.2h-4.2l11.7-20.2h4.2l-1.6 2.7c2.1-2.2 4-3.1 5.8-3.1 2.3 0 4.1 2.3 2.3 5.5l-6 10.6c-1 1.7-.4 2.3.5 2.3 1.9 0 4.8-2.8 7.8-6.3l.2-.3z" fill="#fff"/><path class="st98" d="M1351.765 677.738l2.6-1.4s.6 1.5 2 1.5c4 0 3.1-7.8 4.8-12.2-1.5 2-3.6 4.9-6 7.7-.6-.4-1.2-.9-1.6-1.5 3.8-4.4 7.6-9.9 9.3-12.3l3.1 1.7c-2.6 5.4-2.3 11.5-3.6 15.5 1.7-1.1 3.5-2.7 5-4.6l.3-.3c.6.2 1.3.8 1.6 1.5-3.1 3.7-7.4 7.1-11.7 7.6h-.1c-.4 0-.8.1-1.2.1-3.7.1-4.5-3.3-4.5-3.3zm-127.825-155.39v-7.1h5.5v-27.9h-5.5v-7.1h21.1l9.2 24.7 9.3-24.7h21.5v7.1h-5.5v27.9h5.5v7.1h-21.2v-7.1h5.1v-27.9h-1l-13.1 35h-4.5l-13.2-35h-1v27.9h5.5v7.1h-17.7zm89.4-42.8c7.3 0 13 2.1 17.2 6.3 4.2 4.2 6.3 9.3 6.3 15.4s-2.1 11.2-6.3 15.4c-4.2 4.2-9.9 6.3-17.1 6.3-7.5 0-13.3-2.2-17.4-6.5-4-4.3-6.1-9.4-6.1-15.2 0-6 2.1-11.1 6.2-15.3 4.2-4.3 9.9-6.4 17.2-6.4zm0 7.7c-3.2 0-6 1.2-8.2 3.6-2.3 2.4-3.4 6-3.4 10.7 0 4.1 1.1 7.5 3.3 9.9 2.2 2.5 5 3.7 8.3 3.7 3.2 0 6-1.2 8.2-3.7 2.3-2.4 3.4-5.9 3.4-10.5 0-4.1-1.1-7.4-3.2-10-2.1-2.4-4.9-3.7-8.4-3.7zm27.6.1v-7.1h20.1v7.1h-4.1v19.1c0 2.5.1 4.4.3 5.5.2 1.1.8 2 1.7 2.8.9.7 2.1 1.1 3.5 1.1s2.6-.3 3.6-1c.9-.7 1.6-1.5 1.8-2.6.3-1 .4-3.1.4-6.3v-18.5h-4.1v-7.1h16.8v7.1h-5.1v21.1c0 2.9-.2 5-.5 6.3-.3 1.3-1 2.6-2.1 3.9-1.1 1.3-2.7 2.3-4.7 3.1-2.1.8-4.4 1.2-7.1 1.2-3.1 0-5.8-.4-8-1.3s-3.8-2-4.9-3.5c-1.1-1.5-1.8-2.9-2.1-4.3-.3-1.4-.5-3.9-.5-7.3v-19.1h-5zm42.6 35v-7.1h5.6v-27.9h-5.6v-7.1h17.7l15.5 26.3v-19.2h-5.5v-7.1h18.9v7.1h-5.9v35.3h-9.4l-18.2-31.2v23.8h5.3v7.1h-18.4zm56.6 0v-7.1h6.3v-27.9h-6.3v9.8h-7.2v-16.9h38.2v16.9h-7.1v-9.8h-6.5v27.9h6.3v7.1h-23.7zm74.4-7.1v7.1h-20.7v-7.1h5.4l-2-7.2h-11l-2.2 7.2h5.6v7.1h-18.7v-7.1h5.2l8.2-27.9h-5.6v-7.1h27.5v7.1h-5.7l8.8 27.9h5.2zm-19.1-13.4l-3.5-12.7-3.8 12.7h7.3zm20.4 20.5v-7.1h6.4v-27.9h-6.4v-7.1h23.8v7.1h-6.5v27.9h6.5v7.1h-23.8zm26.7 0v-7.1h5.6v-27.9h-5.6v-7.1h17.7l15.5 26.3v-19.2h-5.5v-7.1h19v7.1h-5.9v35.3h-9.4l-18.2-31.2v23.8h5.3v7.1h-18.5z" fill="#fff"/><path d="M140.842 845.098h-9.55v-17.13h9.55v1.77h-7.56v5.52h7.1v1.75h-7.1v6.31h7.56v1.78zm12.456 0v-8.31c0-1.047-.237-1.827-.71-2.34-.48-.52-1.227-.78-2.24-.78-1.346 0-2.33.363-2.95 1.09-.627.726-.94 1.926-.94 3.6v6.74h-1.95v-12.84h1.58l.32 1.75h.09c.4-.634.96-1.124 1.68-1.47.72-.347 1.52-.52 2.4-.52 1.547 0 2.713.373 3.5 1.12.78.746 1.17 1.94 1.17 3.58v8.38h-1.95zm10.277-1.37c.347 0 .68-.027 1-.08.32-.047.573-.1.76-.16v1.49c-.213.106-.523.19-.93.25a7.12 7.12 0 0 1-1.11.1c-2.487 0-3.73-1.307-3.73-3.92v-7.64h-1.84v-.94l1.84-.81.82-2.74h1.13v2.98h3.73v1.51h-3.73v7.56c0 .773.183 1.366.55 1.78.367.413.87.62 1.51.62zm9.86 1.6c-1.9 0-3.4-.577-4.5-1.73-1.093-1.154-1.64-2.76-1.64-4.82 0-2.067.51-3.71 1.53-4.93 1.02-1.22 2.387-1.83 4.1-1.83 1.613 0 2.887.53 3.82 1.59.94 1.06 1.41 2.456 1.41 4.19v1.23h-8.85c.04 1.506.423 2.65 1.15 3.43.72.786 1.737 1.18 3.05 1.18 1.38 0 2.747-.29 4.1-.87v1.73c-.687.3-1.337.513-1.95.64-.613.126-1.353.19-2.22.19m-.53-11.68c-1.033 0-1.857.336-2.47 1.01-.613.673-.973 1.603-1.08 2.79h6.72c0-1.227-.277-2.167-.83-2.82-.547-.654-1.327-.98-2.34-.98zm14.595-1.63a7.62 7.62 0 0 1 1.54.14l-.27 1.81a6.523 6.523 0 0 0-1.41-.18c-1.04 0-1.926.423-2.66 1.27-.74.84-1.11 1.89-1.11 3.15v6.89h-1.95v-12.84h1.61l.22 2.38h.09c.48-.84 1.057-1.487 1.73-1.94a3.845 3.845 0 0 1 2.21-.68zm8.335.24h2.09l2.81 7.32c.62 1.673 1.003 2.88 1.15 3.62h.09c.106-.4.32-1.08.64-2.04.326-.967 1.386-3.934 3.18-8.9h2.09l-5.52 14.62c-.547 1.446-1.187 2.473-1.92 3.08-.727.606-1.62.91-2.68.91-.6 0-1.187-.067-1.76-.2v-1.56c.426.093.906.14 1.44.14 1.333 0 2.286-.75 2.86-2.25l.71-1.83-5.18-12.91zm25.376 6.41c0 2.093-.526 3.726-1.58 4.9-1.06 1.173-2.516 1.76-4.37 1.76-1.153 0-2.173-.267-3.06-.8-.893-.54-1.583-1.314-2.07-2.32-.48-1.014-.72-2.194-.72-3.54 0-2.094.524-3.727 1.57-4.9 1.047-1.167 2.5-1.75 4.36-1.75 1.794 0 3.22.596 4.28 1.79 1.06 1.2 1.59 2.82 1.59 4.86m-9.79 0c0 1.64.33 2.89.99 3.75.654.86 1.617 1.29 2.89 1.29 1.274 0 2.24-.43 2.9-1.29.66-.854.99-2.104.99-3.75 0-1.634-.33-2.874-.99-3.72-.66-.854-1.633-1.28-2.92-1.28-1.273 0-2.233.42-2.88 1.26-.653.833-.98 2.08-.98 3.74zm15.21-6.41v8.33c0 1.046.24 1.826.72 2.34.473.52 1.217.78 2.23.78 1.347 0 2.33-.37 2.95-1.11.62-.734.93-1.93.93-3.59v-6.75h1.95v12.84h-1.61l-.28-1.72h-.1a3.866 3.866 0 0 1-1.66 1.45c-.707.333-1.513.5-2.42.5-1.567 0-2.737-.37-3.51-1.11-.78-.74-1.17-1.927-1.17-3.56v-8.4h1.97zm18.947-.24c.573 0 1.086.046 1.54.14l-.27 1.81a6.523 6.523 0 0 0-1.41-.18c-1.04 0-1.927.423-2.66 1.27-.74.84-1.11 1.89-1.11 3.15v6.89h-1.95v-12.84h1.61l.22 2.38h.09c.48-.84 1.056-1.487 1.73-1.94a3.845 3.845 0 0 1 2.21-.68zm14.524 11.71c.347 0 .68-.027 1-.08.32-.047.573-.1.76-.16v1.49c-.213.106-.523.19-.93.25a7.12 7.12 0 0 1-1.11.1c-2.487 0-3.73-1.307-3.73-3.92v-7.64h-1.84v-.94l1.84-.81.82-2.74h1.13v2.98h3.73v1.51h-3.73v7.56c0 .773.183 1.366.55 1.78.367.413.87.62 1.51.62zm9.86 1.6c-1.9 0-3.4-.577-4.5-1.73-1.093-1.154-1.64-2.76-1.64-4.82 0-2.067.51-3.71 1.53-4.93 1.02-1.22 2.387-1.83 4.1-1.83 1.613 0 2.887.53 3.82 1.59.94 1.06 1.41 2.456 1.41 4.19v1.23h-8.85c.04 1.506.423 2.65 1.15 3.43.72.786 1.737 1.18 3.05 1.18 1.38 0 2.747-.29 4.1-.87v1.73c-.687.3-1.337.513-1.95.64-.613.126-1.353.19-2.22.19m-.53-11.68c-1.033 0-1.857.336-2.47 1.01-.613.673-.973 1.603-1.08 2.79h6.72c0-1.227-.277-2.167-.83-2.82-.547-.654-1.327-.98-2.34-.98zm11.835 4.88l-4.47-6.27h2.22l3.38 4.92 3.38-4.92h2.19l-4.47 6.27 4.7 6.57h-2.2l-3.6-5.2-3.63 5.2h-2.2l4.7-6.57zm13.784 5.2c.346 0 .68-.027 1-.08.32-.047.573-.1.76-.16v1.49c-.214.106-.524.19-.93.25-.414.066-.784.1-1.11.1-2.487 0-3.73-1.307-3.73-3.92v-7.64h-1.84v-.94l1.84-.81.82-2.74h1.13v2.98h3.73v1.51h-3.73v7.56c0 .773.183 1.366.55 1.78.366.413.87.62 1.51.62zm19.533 1.37v-8.31c0-1.047-.237-1.827-.71-2.34-.48-.52-1.227-.78-2.24-.78-1.354 0-2.34.37-2.96 1.11-.62.733-.93 1.936-.93 3.61v6.71h-1.95v-18.23h1.95v5.52c0 .66-.034 1.21-.1 1.65h.12c.386-.62.933-1.107 1.64-1.46.706-.354 1.513-.53 2.42-.53 1.566 0 2.743.37 3.53 1.11.786.746 1.18 1.933 1.18 3.56v8.38h-1.95zm11.557.23c-1.9 0-3.4-.577-4.5-1.73-1.094-1.154-1.64-2.76-1.64-4.82 0-2.067.51-3.71 1.53-4.93 1.02-1.22 2.386-1.83 4.1-1.83 1.613 0 2.886.53 3.82 1.59.94 1.06 1.41 2.456 1.41 4.19v1.23h-8.85c.04 1.506.423 2.65 1.15 3.43.72.786 1.736 1.18 3.05 1.18 1.38 0 2.746-.29 4.1-.87v1.73c-.687.3-1.337.513-1.95.64-.614.126-1.354.19-2.22.19m-.53-11.68c-1.034 0-1.857.336-2.47 1.01-.614.673-.974 1.603-1.08 2.79h6.72c0-1.227-.277-2.167-.83-2.82-.547-.654-1.327-.98-2.34-.98zm14.595-1.63c.573 0 1.087.046 1.54.14l-.27 1.81a6.523 6.523 0 0 0-1.41-.18c-1.04 0-1.927.423-2.66 1.27-.74.84-1.11 1.89-1.11 3.15v6.89h-1.95v-12.84h1.61l.22 2.38h.09c.48-.84 1.057-1.487 1.73-1.94a3.845 3.845 0 0 1 2.21-.68zm9.49 13.31c-1.9 0-3.4-.577-4.5-1.73-1.092-1.154-1.64-2.76-1.64-4.82 0-2.067.51-3.71 1.53-4.93 1.02-1.22 2.388-1.83 4.1-1.83 1.614 0 2.888.53 3.82 1.59.94 1.06 1.41 2.456 1.41 4.19v1.23h-8.85c.04 1.506.424 2.65 1.15 3.43.72.786 1.738 1.18 3.05 1.18 1.38 0 2.748-.29 4.1-.87v1.73a9.9 9.9 0 0 1-1.95.64c-.612.126-1.352.19-2.22.19m-.53-11.68c-1.032 0-1.856.336-2.47 1.01-.612.673-.972 1.603-1.08 2.79h6.72c0-1.227-.276-2.167-.83-2.82-.546-.654-1.326-.98-2.34-.98z" white-space="pre" fill="#333"/><path d="M37.452 219.813v-6.303h18.546v6.303h-5.562v27.983h-7.422v-27.983h-5.562zm32.811 13.932v14.051h-7.422V213.51h13.19c4.386 0 6.58 2.33 6.58 6.992v3.978c0 2.824-1.011 4.626-3.032 5.407 1.768.632 2.652 2.078 2.652 4.34v13.57H74.81v-12.985c0-.712-.333-1.067-.999-1.067h-3.547m0-15.206v10.022h3.926a.914.914 0 0 0 .706-.327c.196-.207.293-.454.293-.74v-7.888c0-.287-.097-.533-.293-.74a.914.914 0 0 0-.706-.327h-3.926zm34.216-5.562c4.374 0 6.561 2.33 6.561 6.991v27.828h-7.404v-11.503H98.28v11.503h-7.422v-27.828c0-4.66 2.193-6.991 6.578-6.991h7.043m-6.199 17.599h5.356v-11.503a1.04 1.04 0 0 0-.293-.74.932.932 0 0 0-.723-.328h-3.341a.914.914 0 0 0-.706.327 1.041 1.041 0 0 0-.293.74v11.504zm35.597-17.066h7.164l-7.112 34.286h-8.524l-7.112-34.286h7.215l4.185 25.005 4.184-25.005zm21.718 28.139h8.214v6.147h-15.636V213.51h15.636v6.045h-8.214v8.042h7.68v5.838h-7.68v8.214zm23.373-.104h8.11v6.251h-15.532V213.51h7.422v28.035zm22.465-28.035v34.286h-7.422V213.51h7.422zm28.57 34.286h-7.422v-28.465a1.08 1.08 0 0 0-.293-.74.955.955 0 0 0-.723-.31h-2.859a.936.936 0 0 0-.706.31 1.08 1.08 0 0 0-.293.74v28.465h-7.422v-27.828c0-4.66 2.187-6.991 6.561-6.991h6.579c4.385 0 6.578 2.33 6.578 6.991v27.828zm18.48-13.621v-5.459h9.799v12.623c0 4.66-2.193 6.991-6.579 6.991h-6.664c-4.386 0-6.578-2.33-6.578-6.991v-21.37c0-4.662 2.192-6.992 6.578-6.992h6.664c4.386 0 6.579 2.33 6.579 6.991v3.238h-7.044v-4.133c0-.287-.097-.534-.292-.74a.932.932 0 0 0-.724-.328h-3.34a.917.917 0 0 0-.707.327 1.041 1.041 0 0 0-.292.74v23.11c0 .276.097.523.292.741.196.207.431.31.707.31h3.34a.955.955 0 0 0 .724-.31 1.08 1.08 0 0 0 .292-.74v-8.008h-2.755zm44.216 8.008v-5.304h7.043v4.46c0 4.66-2.193 6.991-6.578 6.991h-6.665c-4.385 0-6.578-2.33-6.578-6.991v-21.37c0-4.662 2.193-6.992 6.578-6.992h6.665c4.385 0 6.578 2.33 6.578 6.991v3.238h-7.043v-4.133a1.04 1.04 0 0 0-.293-.74.932.932 0 0 0-.723-.328h-3.341a.914.914 0 0 0-.706.327 1.04 1.04 0 0 0-.293.74v23.11c0 .276.098.523.293.741.195.207.43.31.706.31h3.34a.955.955 0 0 0 .724-.31 1.08 1.08 0 0 0 .293-.74zm35.155-22.215v21.37c0 4.662-2.187 6.992-6.561 6.992h-7.044c-4.385 0-6.578-2.33-6.578-6.991v-21.37c0-4.662 2.193-6.992 6.578-6.992h7.044c4.374 0 6.56 2.33 6.56 6.991m-7.404 22.215v-23.11a1.04 1.04 0 0 0-.293-.74.932.932 0 0 0-.723-.328h-3.341a.915.915 0 0 0-.706.327 1.04 1.04 0 0 0-.293.74v23.11c0 .276.098.523.293.741.195.207.43.31.706.31h3.34a.955.955 0 0 0 .724-.31 1.08 1.08 0 0 0 .293-.74zm29.982-28.673c4.374 0 6.56 2.33 6.56 6.992v20.303c0 4.661-2.186 6.991-6.56 6.991h-13.622V213.51h13.622m-.844 28.139v-22.043a1.04 1.04 0 0 0-.293-.74.932.932 0 0 0-.723-.327h-4.34v24.177h4.34a.932.932 0 0 0 .723-.327 1.04 1.04 0 0 0 .293-.74zm23.836 0h8.214v6.147H366V213.51h15.636v6.045h-8.214v8.042h7.68v5.838h-7.68v8.214zm23.372-7.904v14.051h-7.422V213.51h13.191c4.386 0 6.578 2.33 6.578 6.992v3.978c0 2.824-1.01 4.626-3.03 5.407 1.768.632 2.652 2.078 2.652 4.34v13.57h-7.422v-12.985c0-.712-.333-1.067-1-1.067h-3.547m0-15.206v10.022h3.927c.275 0 .51-.109.706-.327a1.04 1.04 0 0 0 .292-.74v-7.888a1.04 1.04 0 0 0-.292-.74.914.914 0 0 0-.706-.327h-3.927zm39.624 3.978h-7.06v-2.704c0-.287-.092-.534-.276-.74a.932.932 0 0 0-.723-.328h-2.91a.932.932 0 0 0-.724.328 1.04 1.04 0 0 0-.293.74v6.096c0 .287.098.534.293.74.195.207.436.31.723.31h4.77c4.375.081 6.562 2.417 6.562 7.01v7.37c0 4.66-2.187 6.991-6.561 6.991h-6.251c-4.386 0-6.579-2.33-6.579-6.991v-3.565h7.043v3.823c0 .287.098.534.293.74.195.207.436.31.723.31h3.29c.275 0 .51-.103.706-.31a1.04 1.04 0 0 0 .292-.74v-6.733a1.04 1.04 0 0 0-.292-.74.914.914 0 0 0-.706-.328h-4.77c-4.386 0-6.579-2.33-6.579-6.991v-6.837c0-4.66 2.193-6.991 6.579-6.991h5.872c4.385 0 6.578 2.33 6.578 6.991v2.549z" fill="#fff"/></svg>